<svg xmlns="http://www.w3.org/2000/svg" xmlns:xlink="http://www.w3.org/1999/xlink" version="1.1" id="Layer_1" x="0px" y="0px" width="100px" height="100px" viewBox="0 0 100 100" enable-background="new 0 0 100 100" xml:space="preserve">
<g id="Layer_1_1_">
</g>
<g id="Layer_1_2_">
</g>
<polygon points="42.87,41.779 54.124,77.909 63.6,70.212 90.846,92.125 70.115,63.177 78.999,54.811 "/>
<path d="M48.2,24.387c0,2.292-1.856,4.147-4.147,4.147l0,0c-2.288,0-4.145-1.855-4.145-4.147V13.727  c0-2.292,1.856-4.147,4.145-4.147l0,0c2.292,0,4.147,1.855,4.147,4.147V24.387z"/>
<path d="M31.997,27.81c1.62,1.618,1.62,4.242,0,5.862l0,0c-1.62,1.62-4.244,1.62-5.862,0l-7.539-7.539  c-1.619-1.619-1.619-4.243,0-5.862l0,0c1.621-1.619,4.243-1.619,5.864,0L31.997,27.81z"/>
<path d="M54.615,26.248c-1.62,1.619-1.62,4.243,0,5.863l0,0c1.617,1.618,4.245,1.618,5.865,0l7.533-7.54  c1.621-1.618,1.621-4.243,0-5.862l0,0c-1.62-1.62-4.237-1.62-5.857,0L54.615,26.248z"/>
<path d="M24.03,40.692c2.289,0,4.147,1.857,4.147,4.147l0,0c0,2.292-1.854,4.147-4.146,4.147l-10.661-0.004  c-2.291,0-4.146-1.855-4.146-4.145l0,0c0-2.292,1.855-4.146,4.146-4.146H24.03z"/>
<path d="M29.015,55.117c1.62-1.619,4.244-1.619,5.861,0.004l0,0c1.623,1.616,1.623,4.24,0.001,5.86l-7.538,7.541  c-1.619,1.617-4.243,1.617-5.862,0l0,0c-1.619-1.624-1.619-4.249,0-5.865L29.015,55.117z"/>
</svg>