<svg xmlns="http://www.w3.org/2000/svg" xmlns:xlink="http://www.w3.org/1999/xlink" version="1.1" id="Layer_1" x="0px" y="0px" width="100px" height="100px" viewBox="0 0 100 100" enable-background="new 0 0 100 100" xml:space="preserve">
<polygon points="84.407,66.758 84.407,64.069 81.719,64.069 81.719,61.328 78.979,61.328 78.979,61.38 76.34,61.38 76.34,58.638   70.908,58.638 70.908,58.692 68.22,58.692 68.22,56.003 62.841,56.003 62.841,42.604 60.1,42.604 60.1,66.812 62.841,66.812   62.841,58.742 68.22,58.742 68.22,69.449 70.963,69.449 70.963,61.38 76.29,61.38 76.29,72.139 79.031,72.139 79.031,64.069   81.67,64.069 81.67,66.812 84.355,66.812 84.355,82.898 81.67,82.898 81.67,85.589 81.618,85.589 81.618,90.97 78.928,90.97   78.928,96.297 57.513,96.297 57.513,90.916 54.775,90.916 54.775,85.589 52.084,85.589 52.084,80.207 49.392,80.207 49.392,74.831   46.703,74.831 46.703,72.139 44.013,72.139 44.013,66.812 49.392,66.812 49.392,69.5 52.084,69.5 52.084,77.52 54.824,77.52   54.824,42.604 57.513,42.604 57.513,42.551 60.203,42.551 60.203,39.809 57.463,39.809 57.463,39.862 54.775,39.862 54.775,42.501   52.084,42.501 52.084,66.758 49.442,66.758 49.442,64.069 41.273,64.069 41.273,72.139 43.963,72.139 43.963,74.883 46.651,74.883   46.651,80.259 49.34,80.259 49.34,85.64 52.034,85.64 52.034,91.019 54.775,91.019 54.775,99.039 81.719,99.039 81.719,96.297   81.67,96.297 81.67,91.019 84.355,91.019 84.355,85.64 84.407,85.64 84.407,82.95 87.101,82.95 87.101,66.758 "/>
<path d="M22.459,77.642V8.22h32.3v14.351c0,0.191,0.081,0.376,0.213,0.512c0.136,0.135,0.322,0.211,0.513,0.211h14.15v29.443h6.521  V21.689c0-0.872-0.339-1.692-0.958-2.309L58.439,2.647c-0.611-0.604-1.452-0.952-2.308-0.952H19.197c-0.86,0-1.7,0.35-2.307,0.957  c-0.606,0.605-0.954,1.445-0.954,2.304v75.951c0,0.857,0.348,1.697,0.954,2.307c0.607,0.608,1.447,0.957,2.307,0.957h25.071  l-3.754-6.529H22.459z"/>
</svg>