<svg xmlns="http://www.w3.org/2000/svg" xmlns:xlink="http://www.w3.org/1999/xlink" version="1.1" id="Layer_1" x="0px" y="0px" width="100px" height="100px" viewBox="0 0 100 100" enable-background="new 0 0 100 100" xml:space="preserve">
<path d="M97.926,22.813c-2.732-2.734-7.163-2.734-9.896,0l-24.33,24.328L51.743,35.185c-2.732-2.734-7.165-2.734-9.896,0  c-2.733,2.732-2.733,7.163,0,9.895l16.904,16.906c1.367,1.367,3.158,2.05,4.948,2.05s3.582-0.683,4.948-2.05l29.278-29.278  C100.658,29.976,100.658,25.545,97.926,22.813z"/>
<path d="M52.19,68.598L35.238,51.642c-3.094-3.092-4.799-7.204-4.799-11.579c0-4.375,1.705-8.487,4.794-11.576  c3.092-3.095,7.206-4.799,11.582-4.799c4.375,0,8.489,1.704,11.579,4.796l5.375,5.375l0.564-0.562V8.671H0v82.658h64.333V73.366  c-0.19,0.006-0.373,0.027-0.564,0.027C59.393,73.394,55.279,71.689,52.19,68.598z"/>
</svg>